<svg width="640" height="360" viewBox="0 0 640 360" fill="none" xmlns="http://www.w3.org/2000/svg" aria-hidden="true">
  <defs>
    <linearGradient id="mqg" x1="0%" y1="0%" x2="100%" y2="100%">
      <stop offset="0%" stop-color="#081226"/>
      <stop offset="100%" stop-color="#0E1D3D"/>
    </linearGradient>
    <pattern id="mqgrid" width="24" height="24" patternUnits="userSpaceOnUse">
      <path d="M24 0H0V24" stroke="#43EFFF" stroke-opacity="0.12" stroke-width="1"/>
    </pattern>
  </defs>
  <rect width="640" height="360" rx="12" fill="url(#mqg)"/>
  <rect x="12" y="12" width="616" height="336" rx="10" fill="url(#mqgrid)" stroke="#9F7BFF" stroke-opacity="0.35" stroke-width="1.5"/>
  <text x="320" y="32" fill="#9F7BFF" font-size="14" font-family="Orbitron, Arial, sans-serif" text-anchor="middle">PARABOLA f(x) = x^2 - 5x + 6</text>
  <g transform="translate(80,300)">
    <line x1="0" y1="0" x2="480" y2="0" stroke="#E8E8E8" stroke-width="2"/>
    <line x1="40" y1="50" x2="40" y2="-250" stroke="#E8E8E8" stroke-width="2"/>
    <polyline
      fill="none"
      stroke="#6BE8FF"
      stroke-width="3"
      stroke-linejoin="round"
      stroke-linecap="round"
      points="40,-228 116,-76 192,0 230,9.5 268,0 344,-76 420,-228"
    />
    <circle cx="192" cy="0" r="7" fill="#43EFFF" stroke="#ffffff" stroke-width="1.5"/>
    <circle cx="268" cy="0" r="7" fill="#43EFFF" stroke="#ffffff" stroke-width="1.5"/>
    <text x="175" y="20" fill="#B393FF" font-size="11" font-family="Inter, Arial, sans-serif">x = 2</text>
    <text x="248" y="20" fill="#B393FF" font-size="11" font-family="Inter, Arial, sans-serif">x = 3</text>
    <text x="430" y="22" fill="#9F7BFF" font-size="12" font-family="Inter, Arial, sans-serif">x</text>
    <text x="18" y="-210" fill="#9F7BFF" font-size="12" font-family="Inter, Arial, sans-serif">y</text>
  </g>
  <text x="320" y="348" fill="#888" font-size="11" font-family="Inter, Arial, sans-serif" text-anchor="middle">Zeros: onde f(x) = 0 (cruza o eixo x)</text>
</svg>
